<svg xmlns="http://www.w3.org/2000/svg" viewBox="0 0 1000 150.98"><defs><style>.a{fill:#adff93;}.b{fill:#40ffe2;}.c{fill:#cf59ff;}.d{fill:#02cff6;}.e{fill:#0494fe;}.f{fill:#8e60fe;}.g{fill:#0486fe;}.h{fill:#83ed8c;}.i{fill:#40ded4;}.j{fill:#ad45ec;}.k{fill:#02b3e5;}.l{fill:#0f69ed;}.m{fill:#8027ff;}</style></defs><title>Artboard 1</title><path class="a" d="M871.13,22.11a75.49,75.49,0,0,0,0,106.76L977.89,22.11A75.49,75.49,0,0,0,871.13,22.11Z"/><path class="b" d="M685.77,75.49A75.49,75.49,0,0,0,761.26,151V0A75.49,75.49,0,0,0,685.77,75.49Z"/><path class="c" d="M0,148.24V49.41a49.41,49.41,0,0,1,98.83,0Z"/><path class="d" d="M527.08,148.24V49.41a49.41,49.41,0,1,1,98.83,0Z"/><polygon class="e" points="416.8 148.24 319.4 148.24 359.25 5.78 416.8 78.11 416.8 148.24"/><polygon class="f" points="229.1 5.77 146.84 148.24 229.1 148.24 229.1 5.77"/><line class="g" x1="626.22" y1="49.41" x2="527.39" y2="148.24"/><path class="h" d="M977.89,22.11,871.13,128.87A75.49,75.49,0,0,0,977.89,22.11Z"/><path class="i" d="M761.26,0V151a75.49,75.49,0,1,0,0-151Z"/><path class="j" d="M98.83,49.41a49.41,49.41,0,1,1,0,98.83H0Z"/><path class="k" d="M625.91,49.41a49.41,49.41,0,1,1,0,98.83H527.08Z"/><polygon class="l" points="416.8 148.24 514.2 148.24 474.36 5.78 416.8 78.11 416.8 148.24"/><polygon class="m" points="229.1 5.77 311.35 148.24 229.1 148.24 229.1 5.77"/></svg>